<mxfile host="app.diagrams.net" modified="2024-02-13T10:15:20.692Z" agent="Mozilla/5.0 (Windows NT 10.0; Win64; x64) AppleWebKit/537.36 (KHTML, like Gecko) Chrome/121.0.0.0 Safari/537.36 Edg/121.0.0.0" etag="Qyt1bDGiToVUkgWTk6SD" version="23.1.3" type="device">
  <diagram name="Страница — 1" id="J7NuIUV9PQ02l1ZGplA2">
    <mxGraphModel dx="182" dy="278" grid="1" gridSize="10" guides="1" tooltips="1" connect="1" arrows="1" fold="1" page="1" pageScale="1" pageWidth="1384" pageHeight="980" math="0" shadow="0">
      <root>
        <mxCell id="0" />
        <mxCell id="1" parent="0" />
        <mxCell id="3UqMkCQrc7F0VQ00rMsC-3" value="С1" style="swimlane;whiteSpace=wrap;html=1;" parent="1" vertex="1">
          <mxGeometry x="190" y="120" width="306" height="380" as="geometry" />
        </mxCell>
        <mxCell id="3UqMkCQrc7F0VQ00rMsC-4" value="-Album(string)" style="text;html=1;align=center;verticalAlign=middle;resizable=0;points=[];autosize=1;strokeColor=none;fillColor=none;" parent="3UqMkCQrc7F0VQ00rMsC-3" vertex="1">
          <mxGeometry x="-12" y="20" width="100" height="30" as="geometry" />
        </mxCell>
        <mxCell id="CmFBqmL9VnSYAantr8nA-1" value="+Year(float)" style="text;html=1;align=center;verticalAlign=middle;resizable=0;points=[];autosize=1;strokeColor=none;fillColor=none;" vertex="1" parent="3UqMkCQrc7F0VQ00rMsC-3">
          <mxGeometry x="-14" y="38" width="90" height="30" as="geometry" />
        </mxCell>
        <mxCell id="CmFBqmL9VnSYAantr8nA-2" value="#Artist(string)" style="text;html=1;align=center;verticalAlign=middle;resizable=0;points=[];autosize=1;strokeColor=none;fillColor=none;" vertex="1" parent="3UqMkCQrc7F0VQ00rMsC-3">
          <mxGeometry x="-8" y="56" width="90" height="30" as="geometry" />
        </mxCell>
        <mxCell id="CmFBqmL9VnSYAantr8nA-3" value="&amp;lt;&amp;lt;getter&amp;gt;&amp;gt;-id:int" style="text;html=1;align=center;verticalAlign=middle;resizable=0;points=[];autosize=1;strokeColor=none;fillColor=none;" vertex="1" parent="3UqMkCQrc7F0VQ00rMsC-3">
          <mxGeometry x="-10" y="72" width="110" height="30" as="geometry" />
        </mxCell>
        <mxCell id="CmFBqmL9VnSYAantr8nA-4" value="&amp;lt;&amp;lt;setter&amp;gt;&amp;gt;-id:int" style="text;html=1;align=center;verticalAlign=middle;resizable=0;points=[];autosize=1;strokeColor=none;fillColor=none;" vertex="1" parent="3UqMkCQrc7F0VQ00rMsC-3">
          <mxGeometry x="-10" y="87" width="110" height="30" as="geometry" />
        </mxCell>
        <mxCell id="CmFBqmL9VnSYAantr8nA-5" value="&amp;lt;&amp;lt;getter&amp;gt;&amp;gt;+name:string" style="text;html=1;align=center;verticalAlign=middle;resizable=0;points=[];autosize=1;strokeColor=none;fillColor=none;" vertex="1" parent="3UqMkCQrc7F0VQ00rMsC-3">
          <mxGeometry x="-10" y="102" width="150" height="30" as="geometry" />
        </mxCell>
        <mxCell id="CmFBqmL9VnSYAantr8nA-6" value="&amp;lt;&amp;lt;setter&amp;gt;&amp;gt;+name:string" style="text;html=1;align=center;verticalAlign=middle;resizable=0;points=[];autosize=1;strokeColor=none;fillColor=none;" vertex="1" parent="3UqMkCQrc7F0VQ00rMsC-3">
          <mxGeometry x="-10" y="116" width="150" height="30" as="geometry" />
        </mxCell>
        <mxCell id="CmFBqmL9VnSYAantr8nA-7" value="&amp;lt;&amp;lt;getter&amp;gt;&amp;gt;#surname:string" style="text;html=1;align=center;verticalAlign=middle;resizable=0;points=[];autosize=1;strokeColor=none;fillColor=none;" vertex="1" parent="3UqMkCQrc7F0VQ00rMsC-3">
          <mxGeometry x="-12" y="130" width="170" height="30" as="geometry" />
        </mxCell>
        <mxCell id="CmFBqmL9VnSYAantr8nA-8" value="&amp;lt;&amp;lt;setter&amp;gt;&amp;gt;#surname:string" style="text;html=1;align=center;verticalAlign=middle;resizable=0;points=[];autosize=1;strokeColor=none;fillColor=none;" vertex="1" parent="3UqMkCQrc7F0VQ00rMsC-3">
          <mxGeometry x="-12" y="144" width="170" height="30" as="geometry" />
        </mxCell>
        <mxCell id="CmFBqmL9VnSYAantr8nA-9" value="&amp;lt;&amp;lt;constructor&amp;gt;&amp;gt;+C1" style="text;html=1;align=center;verticalAlign=middle;resizable=0;points=[];autosize=1;strokeColor=none;fillColor=none;" vertex="1" parent="3UqMkCQrc7F0VQ00rMsC-3">
          <mxGeometry x="-10" y="159" width="130" height="30" as="geometry" />
        </mxCell>
        <mxCell id="CmFBqmL9VnSYAantr8nA-10" value="&amp;lt;&amp;lt;constructor&amp;gt;&amp;gt;+C1(int id, string name, string surname)" style="text;html=1;align=center;verticalAlign=middle;resizable=0;points=[];autosize=1;strokeColor=none;fillColor=none;" vertex="1" parent="3UqMkCQrc7F0VQ00rMsC-3">
          <mxGeometry x="-10" y="175" width="320" height="30" as="geometry" />
        </mxCell>
        <mxCell id="CmFBqmL9VnSYAantr8nA-11" value="&amp;lt;&amp;lt;constructor&amp;gt;&amp;gt;+C1(C1 c1)" style="text;html=1;align=center;verticalAlign=middle;resizable=0;points=[];autosize=1;strokeColor=none;fillColor=none;" vertex="1" parent="3UqMkCQrc7F0VQ00rMsC-3">
          <mxGeometry x="-10" y="191" width="170" height="30" as="geometry" />
        </mxCell>
        <mxCell id="CmFBqmL9VnSYAantr8nA-12" value="-Print()" style="text;html=1;align=center;verticalAlign=middle;resizable=0;points=[];autosize=1;strokeColor=none;fillColor=none;" vertex="1" parent="3UqMkCQrc7F0VQ00rMsC-3">
          <mxGeometry x="-10" y="208" width="60" height="30" as="geometry" />
        </mxCell>
        <mxCell id="CmFBqmL9VnSYAantr8nA-13" value="+PrintInfo()" style="text;html=1;align=center;verticalAlign=middle;resizable=0;points=[];autosize=1;strokeColor=none;fillColor=none;" vertex="1" parent="3UqMkCQrc7F0VQ00rMsC-3">
          <mxGeometry x="-10" y="223" width="80" height="30" as="geometry" />
        </mxCell>
        <mxCell id="CmFBqmL9VnSYAantr8nA-14" value="#PrintInfos()" style="text;html=1;align=center;verticalAlign=middle;resizable=0;points=[];autosize=1;strokeColor=none;fillColor=none;" vertex="1" parent="3UqMkCQrc7F0VQ00rMsC-3">
          <mxGeometry x="-11" y="239" width="90" height="30" as="geometry" />
        </mxCell>
      </root>
    </mxGraphModel>
  </diagram>
</mxfile>
